HIERARCHY
ROOT Hips
{
  OFFSET 0 0 0
  CHANNELS 6 Xposition Yposition Zposition Zrotation Yrotation Xrotation
  JOINT LeftThigh
  {
    OFFSET 8.409438 0 -5.917753
    CHANNELS 3 Zrotation Yrotation Xrotation
    JOINT LeftLeg
    {
      OFFSET 0 0 -42.358652
      CHANNELS 3 Zrotation Yrotation Xrotation
      JOINT LeftFoot
      {
        OFFSET 0 0 -39.357303
        CHANNELS 3 Zrotation Yrotation Xrotation
      }
    }
  }
  JOINT RightThigh
  {
    OFFSET -8.409438 0 -5.917753
    CHANNELS 3 Zrotation Yrotation Xrotation
    JOINT RightLeg
    {
      OFFSET 0 0 -42.358652
      CHANNELS 3 Zrotation Yrotation Xrotation
      JOINT RightFoot
      {
        OFFSET 0 0 -39.357303
        CHANNELS 3 Zrotation Yrotation Xrotation
      }
    }
  }
  JOINT SpineLow
  {
    OFFSET 0 0 4.719101
    CHANNELS 3 Zrotation Yrotation Xrotation
    JOINT SpineMid
    {
      OFFSET 0 0 12.899191
      CHANNELS 3 Zrotation Yrotation Xrotation
      JOINT Chest
      {
        OFFSET 0 0 12.899191
        CHANNELS 3 Zrotation Yrotation Xrotation
        JOINT LeftShoulder
        {
          OFFSET 7.550562 1.41573 9.438202
          CHANNELS 3 Zrotation Yrotation Xrotation
          JOINT LeftArm
          {
            OFFSET 9.155056 0 4.247191
            CHANNELS 3 Zrotation Yrotation Xrotation
            JOINT LeftForearm
            {
              OFFSET 0 0 25.771955
              CHANNELS 3 Zrotation Yrotation Xrotation
              JOINT LeftHand
              {
                OFFSET 0 0 25.197169
                CHANNELS 3 Zrotation Yrotation Xrotation
              }
            }
          }
        }
        JOINT RightShoulder
        {
          OFFSET -7.550562 1.41573 9.438202
          CHANNELS 3 Zrotation Yrotation Xrotation
          JOINT RightArm
          {
            OFFSET -9.155056 0 4.247191
            CHANNELS 3 Zrotation Yrotation Xrotation
            JOINT RightForearm
            {
              OFFSET 0 0 -25.771955
              CHANNELS 3 Zrotation Yrotation Xrotation
              JOINT RightHand
              {
                OFFSET 0 0 -25.197169
                CHANNELS 3 Zrotation Yrotation Xrotation
              }
            }
          }
        }
        JOINT Neck
        {
          OFFSET 0 0 15.101124
          CHANNELS 3 Zrotation Yrotation Xrotation
          JOINT Head
          {
            OFFSET 0 0 11.325843
            CHANNELS 3 Zrotation Yrotation Xrotation
            End Site
            {
              OFFSET 0 0 14.157303
            }
          }
        }
      }
    }
  }
}
MOTION
Frames: 8
Frame Time: 0.0
0.0  93.25843  0.0  62.745767  -39.249418  -141.448622  50.445109  -48.331978  -65.534381  -9.751832  10.126726  26.491425  2.524528  -1.390437  4.66842  -5.969564  29.755107  -22.926806  18.387628  14.176706  30.658401  4.585609  1.8036  -0.03642  2.111865  2.542557  2.421836  6.040425  6.723543  6.858551  6.040425  6.723543  6.85855  -15.681537  29.159831  13.227703  -153.860892  69.273449  -105.223322  -38.382643  -0.545009  92.038895  83.933095  -4.873675  -14.038099  11.388832  -7.203346  26.442333  120.032993  54.556253  44.445966  -17.920357  -30.240739  -114.462293  57.878001  5.374703  -13.45907  5.609852  16.223961  19.432454  3.654435  12.360317  14.324096  
0.0  93.25843  0.0  62.356943  -39.197265  -141.35793  50.116207  -51.065178  -66.537132  -6.185326  12.264153  31.008663  3.006241  -1.538065  4.763829  -5.454465  29.865703  -22.224993  18.706781  13.459788  30.95375  3.901208  1.87005  0.118364  1.95287  2.601849  2.996765  5.670441  6.85125  8.423882  5.670441  6.85125  8.423882  -17.922104  28.265681  8.79253  -146.844574  68.763501  -98.441892  -38.833026  -1.070974  92.726234  83.338067  -4.567663  -13.68914  11.969906  -6.548388  22.95958  118.840532  53.033446  42.576267  -16.88394  -30.393601  -115.442883  59.036794  5.832822  -11.152601  5.141417  16.682053  17.317521  3.346398  12.668528  12.751746  
0.0  93.25843  0.0  61.640287  -39.10766  -140.960006  50.644315  -53.363397  -68.216471  -2.31397  14.157367  35.775676  2.998737  -1.7248  4.764278  -5.954867  29.576832  -22.027197  18.748754  13.420914  31.06524  3.827126  1.634791  0.20481  1.664371  2.997828  4.130326  5.069435  7.876911  11.541617  5.069435  7.87691  11.541617  -20.648168  23.992816  1.26677  -141.307151  68.260697  -92.784107  -39.431981  -1.113675  93.148337  83.11121  -4.406691  -13.414163  13.837432  -6.821143  15.236842  117.54943  51.607249  40.583086  -18.078224  -30.245161  -115.197621  59.401925  5.180735  -10.569325  4.015746  16.181642  12.636894  2.650013  12.225115  9.305116  
0.0  93.25843  0.0  60.386329  -39.041282  -139.763703  51.741497  -53.982492  -70.277419  0.452867  14.998235  40.239339  2.523459  -1.842854  4.636986  -7.360185  28.878898  -22.430444  18.206433  13.695013  30.957123  4.327555  1.31559  0.208319  1.123971  2.978297  4.397109  3.619036  7.902686  12.209128  3.619037  7.902686  12.209129  -19.394219  23.469243  -1.506436  -137.303422  67.760249  -88.239972  -40.120556  -0.77949  93.220014  83.187361  -4.493737  -13.038883  16.550503  -5.78021  13.081509  115.359794  50.657408  38.023037  -19.425267  -29.632381  -114.544422  58.593664  4.608985  -11.313602  4.764353  16.721225  11.052641  3.238402  12.631839  8.096378  
0.0  93.25843  0.0  59.537522  -38.927869  -139.257718  52.499674  -53.152791  -71.152053  1.436524  15.306307  44.127803  1.978398  -1.901966  4.503222  -8.557567  28.319792  -22.499879  18.137669  13.99541  30.944869  4.28332  0.651163  0.152803  0.941955  2.752121  4.109843  3.046162  7.335697  11.382843  3.046162  7.335697  11.382843  -17.98789  25.020748  -0.137685  -135.007455  67.460015  -85.332168  -40.707191  -0.322031  93.300367  83.392392  -4.5524  -12.696665  17.088977  -5.145051  15.525628  112.15826  50.840197  35.433875  -18.891948  -30.021111  -114.65879  57.802477  4.281156  -11.83567  5.573757  17.345464  12.289551  3.790959  13.127295  8.983604  
0.0  93.25843  0.0  58.438154  -38.787792  -138.377285  53.689614  -50.773972  -72.516876  0.832  15.716709  47.710898  1.745509  -2.000674  4.459756  -10.048956  27.532369  -22.77173  18.393516  13.901661  31.012742  3.489236  0.088411  0.214854  1.047406  2.524785  3.757335  3.258171  6.717413  10.411006  3.258171  6.717413  10.411006  -18.019987  25.948938  1.657166  -135.464045  67.527925  -86.315532  -41.445032  -0.493965  92.891552  82.579569  -6.240033  -11.828124  16.192956  -5.191908  18.681436  108.293486  52.174827  33.142238  -17.025421  -30.743388  -115.407957  57.474906  4.021735  -11.973622  5.542319  17.473726  13.926127  3.716586  13.239321  10.199992  
0.0  93.25843  0.0  57.507687  -38.632653  -137.748222  54.739277  -48.12158  -73.710429  -0.249825  16.540575  51.256016  2.025499  -2.057498  4.515708  -11.845138  26.598772  -23.128747  18.542688  13.62299  30.933857  2.671653  0.134819  0.368231  1.243777  2.357829  3.5558  3.748645  6.243628  9.865249  3.748645  6.243628  9.865249  -18.733736  26.383659  2.728194  -136.030406  68.097946  -86.351907  -41.843582  -0.663858  93.405955  82.615413  -6.207243  -11.543331  14.497939  -5.395636  20.277743  105.470262  52.71598  31.378524  -15.516542  -31.239435  -115.867132  57.69562  3.808609  -12.057583  5.091667  17.446838  15.061412  3.348794  13.219497  11.058395  
0.0  93.25843  0.0  56.269631  -38.391373  -136.649643  55.927695  -45.433018  -75.235339  -1.231702  17.915959  54.712922  2.589283  -2.116097  4.570129  -14.1278  25.360525  -23.776418  18.427572  13.574568  30.743506  2.180172  0.321967  0.514255  1.198882  2.239656  3.303818  3.585201  5.942892  9.162267  3.585201  5.942892  9.162267  -18.189159  26.938299  3.977214  -135.938453  68.590396  -85.832086  -41.920264  -0.903966  93.993005  82.686023  -6.118389  -11.312898  14.18399  -5.599092  21.55789  103.966011  52.984818  30.591461  -14.820381  -31.356845  -116.102106  58.148478  3.505696  -12.076547  5.380602  17.441056  15.936982  3.538683  13.231069  11.701698  
